<?xml version="1.0" encoding="utf-8"?>
<!-- Generator: Adobe Illustrator 19.0.0, SVG Export Plug-In . SVG Version: 6.00 Build 0)  -->
<svg version="1.1" id="Layer_1" xmlns="http://www.w3.org/2000/svg" xmlns:xlink="http://www.w3.org/1999/xlink" x="0px" y="0px"
	 viewBox="0 0 100 100" style="enable-background:new 0 0 100 100;" xml:space="preserve">
<style type="text/css">
	.st0{fill:#010101;}
</style>
<g id="XMLID_44_">
	<g id="XMLID_45_">
		<path id="XMLID_13_" class="st0" d="M72.4,29.2c-0.4-0.4-0.8-0.6-1.4-0.6c-0.5,0-1,0.2-1.4,0.6c-0.4,0.4-0.6,0.8-0.6,1.4
			c0,0.5,0.2,1,0.6,1.4c0.4,0.4,0.8,0.6,1.4,0.6c0.5,0,1-0.2,1.4-0.6c0.4-0.4,0.6-0.8,0.6-1.4C73,30,72.8,29.5,72.4,29.2z"/>
	</g>
</g>
<g id="XMLID_39_">
	<g id="XMLID_40_">
		<path id="XMLID_41_" class="st0" d="M29.4,56H14c-1.1,0-1.9,0.9-1.9,1.9v15.3c0,1.1,0.9,1.9,1.9,1.9h15.3c1.1,0,1.9-0.9,1.9-1.9
			V57.9C31.3,56.8,30.4,56,29.4,56z M27.4,71.3H16V59.8h11.5V71.3z"/>
	</g>
</g>
<g id="XMLID_34_">
	<g id="XMLID_35_">
		<path id="XMLID_36_" class="st0" d="M97.5,42.1c-0.7-0.3-1.5-0.1-2.1,0.4L75.9,62.1c0,0,0,0,0,0c0,0,0,0,0,0L53.1,84.8
			c0,0,0,0,0,0c0,0,0,0,0,0L41.2,96.7c-0.5,0.5-0.7,1.4-0.4,2.1c0.3,0.7,1,1.2,1.8,1.2h54.2c1.1,0,1.9-0.9,1.9-1.9V43.9
			C98.6,43.1,98.2,42.4,97.5,42.1z M94.8,96.2H47.2l7.3-7.3l1.8,1.8c0.4,0.4,0.9,0.6,1.4,0.6c0.5,0,1-0.2,1.4-0.6
			c0.7-0.7,0.7-2,0-2.7l-1.8-1.8l4.9-4.9l1.8,1.8c0.4,0.4,0.9,0.6,1.4,0.6c0.5,0,1-0.2,1.4-0.6c0.7-0.7,0.7-2,0-2.7l-1.8-1.8
			l4.9-4.9l1.8,1.8c0.4,0.4,0.9,0.6,1.4,0.6s1-0.2,1.4-0.6c0.7-0.7,0.7-2,0-2.7L72.4,71l4.9-4.9l1.8,1.8c0.4,0.4,0.9,0.6,1.4,0.6
			c0.5,0,1-0.2,1.4-0.6c0.7-0.7,0.7-2,0-2.7l-1.8-1.8l4.9-4.9l1.8,1.8c0.4,0.4,0.9,0.6,1.4,0.6c0.5,0,1-0.2,1.4-0.6
			c0.7-0.7,0.7-2,0-2.7l-1.8-1.8l7.3-7.3V96.2z"/>
	</g>
</g>
<g id="XMLID_29_">
	<g id="XMLID_30_">
		<path id="XMLID_31_" class="st0" d="M87.9,65.3c-0.7-0.3-1.5-0.1-2.1,0.4L64.3,87.2c-0.5,0.5-0.7,1.4-0.4,2.1s1,1.2,1.8,1.2h21.5
			c1.1,0,1.9-0.9,1.9-1.9V67C89.1,66.2,88.6,65.6,87.9,65.3z M85.2,86.6h-15l15-15V86.6z"/>
	</g>
</g>
<g id="XMLID_23_">
	<g id="XMLID_24_">
		<path id="XMLID_25_" class="st0" d="M89.3,30.6c-0.5-0.5-1.3-0.7-2-0.4l-13.1,4.8c-0.3,0.1-0.5,0.2-0.7,0.4L69.8,39l-24-24
			c-0.4-0.4-0.8-0.6-1.4-0.6c-0.5,0-1,0.2-1.4,0.6L14.2,43.9H7.2L44.5,6.6l20.5,20.5c0.7,0.7,2,0.7,2.7,0c0.7-0.7,0.7-2,0-2.7
			L45.8,2.6c-0.7-0.7-2-0.7-2.7,0L1.2,44.5c-0.5,0.5-0.7,1.4-0.4,2.1c0.3,0.7,1,1.2,1.8,1.2h1.9v50.3c0,1.1,0.9,1.9,1.9,1.9h30.4
			c1.1,0,1.9-0.9,1.9-1.9s-0.9-1.9-1.9-1.9H8.3V47.7H15c0.5,0,1-0.2,1.4-0.6l28.1-28.1l22.6,22.6L38.7,70.1V52.9h13.4
			c1.1,0,1.9-0.9,1.9-1.9c0-1.1-0.9-1.9-1.9-1.9H36.8c-1.1,0-1.9,0.9-1.9,1.9v22.2c0,0.2,0,0.4,0.1,0.6l-1.7,1.7c-3,3-3,8,0,11
			c1.5,1.5,3.5,2.3,5.5,2.3c2,0,4-0.8,5.5-2.3l16.1-16.1c0.7-0.7,0.7-2,0-2.7c-0.7-0.7-2-0.7-2.7,0L45.5,79.9l-5.6-5.6l35-35
			l5.6,5.6L67.1,58.3c-0.7,0.7-0.7,2,0,2.7c0.7,0.7,2,0.7,2.7,0l14.7-14.7c0.2-0.2,0.3-0.4,0.4-0.7l4.8-13.1
			C90,31.9,89.8,31.1,89.3,30.6z M42.8,82.6l-1.2,1.2c-0.7,0.7-1.7,1.2-2.8,1.2c-1.1,0-2-0.4-2.8-1.2c-0.7-0.7-1.2-1.7-1.2-2.8
			s0.4-2,1.2-2.8l1.2-1.2L42.8,82.6z M82.4,41.5l-4-4l6.3-2.3L82.4,41.5z"/>
	</g>
</g>
<g id="XMLID_20_">
	<g id="XMLID_21_">
		<path id="XMLID_3_" class="st0" d="M65.1,63c-0.4-0.4-0.8-0.6-1.4-0.6c-0.5,0-1,0.2-1.4,0.6c-0.4,0.4-0.6,0.8-0.6,1.4
			c0,0.5,0.2,1,0.6,1.4c0.4,0.4,0.8,0.6,1.4,0.6c0.5,0,1-0.2,1.4-0.6c0.4-0.4,0.6-0.9,0.6-1.4C65.7,63.9,65.4,63.4,65.1,63z"/>
	</g>
</g>
<g id="XMLID_15_">
	<g id="XMLID_16_">
		<path id="XMLID_17_" class="st0" d="M44.5,30.9c-4,0-7.3,3.3-7.3,7.3s3.3,7.3,7.3,7.3s7.3-3.3,7.3-7.3S48.5,30.9,44.5,30.9z
			 M44.5,41.6c-1.9,0-3.4-1.5-3.4-3.4c0-1.9,1.5-3.4,3.4-3.4c1.9,0,3.4,1.5,3.4,3.4S46.4,41.6,44.5,41.6z"/>
	</g>
</g>
</svg>
