<?xml version="1.0" encoding="utf-8"?>
<!-- Generator: Adobe Illustrator 19.0.0, SVG Export Plug-In . SVG Version: 6.00 Build 0)  -->
<svg version="1.1" id="Layer_1" xmlns="http://www.w3.org/2000/svg" xmlns:xlink="http://www.w3.org/1999/xlink" x="0px" y="0px"
	 viewBox="0 0 100 100" style="enable-background:new 0 0 100 100;" xml:space="preserve">
<g id="XMLID_130_">
	<path id="XMLID_11_" d="M26.3,99.8c-0.8,0-1.7-0.2-2.5-0.6c-2.2-1.1-3.3-2.9-3.2-5.3c0.1-1.8,0.2-3.6,0.4-5.3
		c0-0.4,0.1-0.8,0.1-1.3c0.2-3,0.5-6.1,0.7-9.1l0.2-2.4c0.1-1.5,0.2-2.9,0.3-4.4c0.3-3.3,0.5-6.7,0.9-10.1
		c0.7-7.4,1.1-14.7,0.9-21.9c0-2,0-4,0-6c0-0.9,0-1.8,0-2.7v-0.1c-1.8,1.3-3.2,2.7-4.3,4c-0.2,0.2-0.3,0.4-0.5,0.6
		c-0.2,0.2-0.3,0.4-0.5,0.6c-1,1.1-2.2,1.6-3.5,1.4c-1.3-0.2-2.3-1-3-2.3c0,0-0.1-0.1-0.1-0.2c0,0-0.1-0.1-0.1-0.1L12,34.6v-2.2
		l0-0.1c0.3-0.7,0.6-1.5,0.9-2.2c0.7-1.7,1.4-3.4,2.1-5.1c0.5-1.1,0.9-2.2,1.3-3.3c0.7-1.7,1.4-3.5,2.1-5.2c0.5-1.1,1.3-1.9,2.3-2.2
		c1-0.3,2-0.3,3,0.2c1.8,0.9,2.5,3,1.8,5c-0.4,1.1-0.9,2.3-1.4,3.4l1.8,3c0.9,1.5,1.9,3,2.8,4.5l1.5,2.4c4.5,7.4,9.2,15,13.7,22.4
		c0.3,0.5,0.4,1.1,0.4,1.7c-0.2,1.7,0.9,3.3,2.5,3.9c1.1,0.4,1.8,1.3,1.9,2.6c0.3,2.9,0.5,5.9,0.8,8.8c0.1,0.9,0.1,1.7,0.2,2.6
		l0.1,1.6c0.4,4.6,0.8,9.4,1.1,14.1c0,0.3,0.1,0.7,0.1,1c0.1,1.1,0.2,2.3,0.1,3.4c-0.3,3-2.9,5-6,4.8c-2.7-0.1-5-2.5-5.2-5.4l0-0.1
		c-0.6-7.4-1.2-14.8-1.8-22.2c-0.3-4.1-0.7-8.6-1.2-14.1c0-0.3-0.1-0.5-0.1-0.8c0,0,0,0,0,0h-2c0,0.4-0.1,0.8-0.1,1.2
		c-0.1,1.2-0.2,2.4-0.3,3.5c-0.4,4.7-0.8,10.3-1.3,16l-0.1,1.5c-0.4,4.6-0.7,9.3-1.1,13.9c-0.1,1.8-0.4,3.9-2.3,5.3
		C28.6,99.4,27.5,99.8,26.3,99.8z M25.1,28.9v1.9c0,0.9,0,1.8,0,2.7c0,2,0,4,0,6c0.1,7.2-0.2,14.6-0.9,22c-0.3,3.4-0.6,6.8-0.9,10.1
		c-0.1,1.5-0.2,2.9-0.3,4.4l-0.2,2.4c-0.2,3-0.5,6.1-0.7,9.1c0,0.4-0.1,0.9-0.1,1.3c-0.1,1.7-0.3,3.5-0.4,5.2
		c-0.1,2,0.8,3.4,2.6,4.4c1.7,0.8,3.3,0.6,4.9-0.6c1.5-1.2,1.8-2.9,1.9-4.6c0.3-4.6,0.7-9.4,1.1-13.9l0.1-1.5
		c0.5-5.7,0.9-11.3,1.3-16c0.1-1.2,0.2-2.4,0.3-3.5c0-0.5,0.1-1.1,0.1-1.6l0-0.4h3.7l0.1,0.4c0,0.1,0,0.3,0.1,0.4
		c0.1,0.3,0.1,0.6,0.1,0.9c0.5,5.5,0.8,10,1.2,14.1c0.6,7.4,1.2,14.8,1.8,22.2l0,0.1c0.2,2.4,2.1,4.4,4.3,4.5c2.6,0.1,4.7-1.5,5-4
		c0.1-1,0-2.1-0.1-3.2c0-0.3-0.1-0.7-0.1-1c-0.4-4.7-0.8-9.5-1.1-14.1l-0.1-1.6c-0.1-0.9-0.1-1.7-0.2-2.6c-0.2-2.9-0.5-5.8-0.8-8.7
		c-0.1-0.9-0.5-1.5-1.3-1.8c-2-0.7-3.3-2.8-3.1-4.9c0-0.4,0-0.8-0.2-1.1c-4.6-7.5-9.2-15.1-13.7-22.4L28.1,31
		c-0.9-1.5-1.8-3-2.8-4.5L24.4,25c0,0,0,0,0,0c-0.3,0.6-0.5,1.2-0.7,1.8c-0.1,0.2-0.3,0.7-0.8,0.9c-0.5,0.1-0.8-0.2-1.1-0.5
		l-0.2-0.2l0.1-0.3c0.3-0.8,0.6-1.5,0.9-2.3c0.7-1.7,1.5-3.5,2.2-5.3c0.6-1.5,0.1-3-1.3-3.8c-0.7-0.4-1.5-0.4-2.2-0.2
		c-0.8,0.3-1.4,0.9-1.7,1.7c-0.7,1.7-1.5,3.5-2.1,5.2c-0.4,1.1-0.9,2.2-1.3,3.3c-0.7,1.7-1.4,3.4-2.1,5.1c-0.3,0.7-0.6,1.4-0.9,2.1
		v1.7c0.1,0.1,0.1,0.2,0.2,0.3c0.5,1,1.3,1.6,2.3,1.7c0.9,0.1,1.9-0.3,2.7-1.1c0.2-0.2,0.3-0.4,0.5-0.5c0.2-0.2,0.4-0.4,0.5-0.6
		c1.4-1.5,3-3.2,5.3-4.7L25.1,28.9z"/>
</g>
<g id="XMLID_129_">
	<path id="XMLID_8_" d="M48.2,61.3c-0.4,0-0.7-0.1-1.1-0.2c-2.1-0.6-3.2-2.7-2.5-5c0.7-2.5,1.3-4.8,1.6-7c-0.1,0.5-0.2,1-0.4,1.4
		l-0.3,1L26.9,21.1l0.8,0c0.2,0,0.4,0,0.5,0c1.2-0.1,2.4-0.1,3.6,1c3.2,2.9,8.9,3.6,13.4-0.6l0.3-0.3l0.3,0.3
		c0.2,0.2,0.4,0.4,0.6,0.6c0.5,0.4,1,0.9,1.4,1.4c3.2,3.8,5.2,8.4,6,14.1c0.9,6.2,0.3,12.7-2,20.5c-0.3,1.1-1,2-1.9,2.6
		C49.5,61.1,48.9,61.3,48.2,61.3z M44.6,30.3l0.2,0.3c1.7,3.1,2.7,6.7,2.9,10.9c0.2,4.4-0.5,9.2-2.1,14.9c-0.5,1.7,0.3,3.3,1.9,3.8
		c0.8,0.2,1.6,0.1,2.2-0.3c0.7-0.4,1.2-1.1,1.4-2c2.3-7.7,2.9-14.1,2-20.1c-0.8-5.5-2.7-10-5.8-13.7c-0.4-0.5-0.9-0.9-1.3-1.3
		c-0.1-0.1-0.2-0.2-0.3-0.3c-2.4,2-5,2.9-7.4,2.9c-2.7,0-5.1-1-7-2.6C30.4,22,29.7,22,28.6,22l16.6,27.1c0.2-0.7,0.3-1.5,0.4-2.4
		c0.6-6-0.1-10.7-2.1-14.8c-0.1-0.3-0.3-0.7-0.1-1.1c0.2-0.4,0.6-0.5,0.9-0.6L44.6,30.3z"/>
</g>
<g id="XMLID_128_">
	<path id="XMLID_5_" d="M28.5,14c-0.5,0-1-0.1-1.3-0.4c-0.3-0.3-0.5-0.6-0.5-1.1c0-0.5,0.3-0.9,0.5-1.3c0.1-0.1,0.2-0.3,0.3-0.4
		c0.1-0.1,0.1-0.2,0.2-0.3c0.1-0.1,0.2-0.3,0.2-0.4c0.1-2.8,1.2-5.2,3.4-7.3l0.7-0.6L32.2,3c0,0.1,0.1,0.2,0.1,0.3c0,0,0,0.1,0,0.1
		c0,0,0.1,0.1,0.1,0.1C32.6,3.8,32.8,4,32.9,4C33,4,33,4,33,4c0,0,0.1-0.2,0.1-0.5c0-0.1,0-0.3,0-0.4c-0.1-0.6-0.1-1.2,0.3-1.6
		c0.4-0.4,1-0.6,1.6-0.8c0.2-0.1,0.5-0.1,0.7-0.2l0.7-0.3l0.2,1.6c0.1,0.5,0.1,1,0.2,1.5c0.1,0.4,0.2,0.4,0.4,0.4
		c0.2,0,0.3,0,0.3-0.5c0-0.5-0.1-0.9-0.1-1.5c0-0.2,0-0.5-0.1-0.8l-0.1-0.7l0.7,0.1c0.2,0,0.4,0,0.6,0.1c0.5,0.1,1,0.1,1.5,0.2
		c0.5,0.1,0.8,0.6,0.9,0.9c0.1,0.2,0.1,0.4,0.1,0.6c0,0.2,0,0.3,0.1,0.4c0.3,0.5,0.5,0.7,0.5,0.7c0,0,0,0,0,0c0,0,0,0,0.1,0
		c0,0,0.1-0.2,0.1-0.5c0-0.1,0-0.2,0-0.3c0-0.1,0-0.2,0-0.3L41.5,1l1,0.6c2.7,1.6,4.4,3.8,5.1,6.9c0.1,0,0.2,0,0.3,0.1
		c0.9,0.3,1.4,1,1.3,1.9c-0.1,1-0.7,1.6-1.7,1.7c-3,0.3-6,0.6-9,0.9c-3,0.3-5.9,0.6-8.9,0.9c-0.1,0-0.3,0-0.4,0c-0.1,0-0.2,0-0.3,0
		C28.7,14,28.6,14,28.5,14z M31.4,4.2C29.8,5.9,29,7.9,29,10.1c0,0.4-0.2,0.7-0.4,1c-0.1,0.1-0.1,0.2-0.1,0.2
		c-0.1,0.2-0.2,0.4-0.3,0.5c-0.1,0.2-0.3,0.5-0.3,0.6c0,0.2,0.1,0.2,0.1,0.3c0.1,0.1,0.4,0.2,0.7,0.1c0.1,0,0.2,0,0.4,0
		c0.1,0,0.3,0,0.4,0c3-0.3,5.9-0.6,8.9-0.9c3-0.3,6-0.6,9-0.9c0.6-0.1,0.7-0.3,0.7-0.6c0-0.2,0-0.5-0.5-0.7c-0.1,0-0.2,0-0.3-0.1
		c-0.1,0-0.1,0-0.2,0l-0.4-0.1L46.5,9c-0.5-2.6-1.7-4.5-3.7-5.9c-0.1,0.4-0.2,0.7-0.5,1c-0.2,0.2-0.5,0.4-1.1,0.3
		c-0.5-0.1-0.9-0.5-1.4-1.3c-0.2-0.3-0.2-0.6-0.2-0.9c0-0.1,0-0.3,0-0.4c0,0,0-0.1-0.1-0.1c-0.4-0.1-0.8-0.1-1.2-0.2c0,0,0,0,0,0.1
		c0,0.5,0.1,1,0.1,1.5c0.1,1-0.4,1.6-1.3,1.7c-0.9,0.1-1.5-0.4-1.7-1.4c-0.1-0.5-0.1-0.9-0.2-1.5l0-0.1c0,0,0,0-0.1,0
		c-0.5,0.1-0.9,0.3-1.1,0.5c0,0.1,0,0.5,0,0.7c0,0.2,0,0.4,0,0.5c0,0.6-0.1,1-0.4,1.3c-0.3,0.3-0.6,0.4-1,0.4
		c-0.5,0-0.9-0.4-1.3-0.8C31.6,4.4,31.5,4.3,31.4,4.2C31.5,4.3,31.4,4.2,31.4,4.2z"/>
</g>
<g id="XMLID_127_">
	<path id="XMLID_2_" d="M38.3,24.6c-1.6,0-3.3-0.4-4.8-1.2c-3.4-1.8-5.6-5.8-5.1-9.1l0.1-0.4l19.2-2l0.2,0.4c1.2,3.1-0.1,7.3-3,9.9
		C43,23.8,40.6,24.6,38.3,24.6z M29.5,14.9c-0.2,2.8,1.8,6,4.5,7.5c3.3,1.8,7.3,1.3,10-1.1c2.4-2.1,3.6-5.7,2.8-8.2L29.5,14.9z"/>
</g>
<g id="XMLID_126_">
	<path id="XMLID_32_" d="M58.7,98.3c-0.5-2.7-1-5.2-1.5-7.8c0-0.3,0.1-0.8,0.4-0.9c4.6-2.8,9.1-5.6,13.7-8.4c0.2-0.1,0.6-0.1,0.8,0
		c2.1,1.6,4.2,3.2,6.2,4.9c-1.3,1.3-1.4,1.3-2.8,0.3c-1.3-0.9-2.5-1.9-3.9-2.7c1.2,1.5,2.3,3,3.5,4.5C69.7,91.6,64.3,94.9,58.7,98.3
		z"/>
</g>
<g id="XMLID_125_">
	<path id="XMLID_31_" d="M48.6,61.8c0.8-0.3,1.5-0.6,2.2-0.8c4.2,6.8,8.3,13.6,12.5,20.5c2.3-1.4,4.5-2.7,6.8-4.1
		c0.5,0.8,1,1.6,1.5,2.5c-5.2,3.2-10.3,6.3-15.5,9.5c-0.5-0.8-1-1.6-1.5-2.5c2.3-1.4,4.5-2.8,6.7-4.1C57.1,75.7,52.8,68.7,48.6,61.8
		z"/>
</g>
<g id="XMLID_124_">
	<path id="XMLID_30_" d="M25.9,20.2c1.2,2,2.3,3.8,3.5,5.6c5,8.2,10,16.4,15.1,24.6c0.7,1.1,0.9,2,0.4,3.1c-0.2,0.4-0.3,0.8-0.4,1.4
		c-1.2-2-2.3-3.8-3.5-5.6C35.8,41,30.7,32.5,25.4,24.1c-0.6-0.9-0.7-1.6-0.2-2.5C25.5,21.2,25.6,20.8,25.9,20.2z"/>
</g>
<g id="XMLID_123_">
	<path id="XMLID_29_" d="M15.4,7.6c0.2-0.2,0.4-0.3,0.6-0.4c0.4-0.3,0.9-0.5,1.4-0.9c1.5,2.4,3,4.8,4.5,7.3
		c-0.8,0.3-1.4,0.5-2.2,0.8C18.2,12.2,16.8,9.9,15.4,7.6z"/>
</g>
<g id="XMLID_122_">
	<path id="XMLID_28_" d="M73.6,96.1c1.5-0.5,2.9-0.8,4.3-1.3c0.6-0.2,1-0.2,1.4,0.3c0.2,0.3,0.4,0.5,0.6,0.7
		c-0.6,0.9-1.2,1.8-1.9,2.7c-0.1,0.2-0.5,0.3-0.7,0.3c-0.5,0.1-1,0-1.5,0.1c-1.9,0.1-2.5-0.8-2.1-2.6C73.6,96.2,73.6,96.1,73.6,96.1
		z"/>
</g>
<g id="XMLID_121_">
	<path id="XMLID_27_" d="M65.7,74c0.2,0.1,0.4,0.4,0.5,0.4c0.9-0.1,1.6,0.2,1.8,1.1c0.2,0.7-0.1,1.4-0.8,1.7c-0.9,0.4-1.6,0.1-2-0.7
		c0-0.1-0.1-0.1-0.2-0.2c-0.2,0-0.5,0.2-0.6,0.1c-0.5-0.3-1.2-0.5-1.4-0.9c-0.2-0.4,0-1.3,0.3-1.6c0.3-0.3,1.1-0.3,1.6-0.3
		C65.2,73.6,65.5,73.9,65.7,74L65.7,74z"/>
</g>
<g id="XMLID_120_">
	<path id="XMLID_26_" d="M80.1,85.9c-1.1-0.6-1.4-1.3-1-2.1c0.3-0.7,1-1,1.7-0.9c0.8,0.2,1.2,0.9,1.1,2.1c1.1,0.7,1.4,1.4,1,2.2
		c-0.3,0.7-1.1,1.1-1.8,0.8C80.3,87.7,79.9,87,80.1,85.9z"/>
</g>
<g id="XMLID_119_">
	<path id="XMLID_25_" d="M80.4,98.4c0.2-1.5,1.1-2.3,2.5-2.5c0.3-0.1,0.8,0.5,1.2,0.8C82.5,99.3,83.3,99,80.4,98.4z"/>
</g>
<g id="XMLID_118_">
	<path id="XMLID_24_" d="M65.7,74c-0.2-0.3-0.4-0.7-0.7-1c0.5-0.9,1.2-1.2,2-0.8c0.8,0.4,1.1,1.1,0.8,2C67.1,74.2,66.4,74.1,65.7,74
		C65.7,74,65.7,74,65.7,74z"/>
</g>
<g id="XMLID_117_">
	<path id="XMLID_23_" d="M83.5,86.2c-0.4-1-1.7-1.5-1.2-2.8c0.9-0.3,1.7-0.1,2.1,0.7C84.7,84.9,84.4,85.7,83.5,86.2z"/>
</g>
<g id="XMLID_116_">
	<path id="XMLID_22_" d="M69.1,98.2c0.2-0.9,0.6-1.6,1.6-1.8c0.3,0,0.7,0.1,0.9,0.2c0.4,0.3,0.3,0.6,0,1
		C70.9,98.8,70.7,98.9,69.1,98.2z"/>
</g>
<g id="XMLID_115_">
	<path id="XMLID_21_" d="M65.7,96.3c0.2,0.3,0.4,0.5,0.6,0.8c-1.2,1.9-0.7,1.8-2.9,1.2C63.7,97.1,64.5,96.5,65.7,96.3z"/>
</g>
<g id="XMLID_114_">
	<path id="XMLID_20_" d="M78,92.4c-0.2,0.5-0.5,1-0.9,1.8c-0.4-0.6-0.7-1-1-1.4c0.5-0.2,1.1-0.5,1.6-0.7
		C77.8,92.2,77.9,92.3,78,92.4z"/>
</g>
<g id="XMLID_113_">
	<path id="XMLID_19_" d="M83.3,81.9c-0.5,0.3-0.8,0.7-1,0.7c-0.3,0-0.5-0.4-0.8-0.7c0.3-0.3,0.5-0.7,0.8-0.7
		C82.5,81.2,82.9,81.6,83.3,81.9z"/>
</g>
<g id="XMLID_112_">
	<path id="XMLID_18_" d="M88,85.6c-0.5,0.4-0.8,0.8-1,0.7c-0.3-0.1-0.5-0.5-0.8-0.7c0.3-0.2,0.5-0.6,0.8-0.7
		C87.2,84.9,87.5,85.2,88,85.6z"/>
</g>
<g id="XMLID_111_">
	<path id="XMLID_17_" d="M78.9,79.6c-0.4-0.5-0.7-0.8-0.7-1.1c0-0.3,0.5-0.6,0.7-0.7c0.2,0,0.6,0.4,0.7,0.7
		C79.6,78.8,79.2,79.1,78.9,79.6z"/>
</g>
<g id="XMLID_110_">
	<path id="XMLID_16_" d="M64.1,70.8c0.4,0.5,0.7,0.8,0.7,1.1c0,0.3-0.4,0.5-0.7,0.8c-0.2-0.2-0.6-0.5-0.7-0.7
		C63.4,71.6,63.7,71.3,64.1,70.8z"/>
</g>
<g id="XMLID_109_">
	<path id="XMLID_15_" d="M82.6,89.5c0.3,0.5,0.7,0.8,0.7,1.1c0,0.3-0.4,0.5-0.7,0.7c-0.2-0.2-0.6-0.5-0.7-0.7
		C81.9,90.4,82.3,90.1,82.6,89.5z"/>
</g>
<g id="XMLID_108_">
	<path id="XMLID_14_" d="M75.4,94.5c-0.3,0.1-0.7,0.3-1,0.3c-0.2,0-0.4-0.4-0.5-0.6c0.3-0.2,0.6-0.5,0.9-0.5c0.2,0,0.5,0.3,0.7,0.4
		C75.4,94.2,75.4,94.4,75.4,94.5z"/>
</g>
<g id="XMLID_107_">
	<path id="XMLID_1_" d="M86.2,99c-0.3-0.4-0.5-0.7-0.8-1.1c0,0,0.4-0.5,0.5-0.4c0.3,0.1,0.7,0.3,0.8,0.5c0.1,0.2-0.1,0.6-0.1,0.9
		C86.5,98.9,86.3,99,86.2,99z"/>
</g>
</svg>
