<?xml version="1.0" encoding="utf-8"?>
<!-- Generator: Adobe Illustrator 19.0.0, SVG Export Plug-In . SVG Version: 6.00 Build 0)  -->
<svg version="1.1" id="Layer_1" xmlns="http://www.w3.org/2000/svg" xmlns:xlink="http://www.w3.org/1999/xlink" x="0px" y="0px"
	 viewBox="0 0 100 100" style="enable-background:new 0 0 100 100;" xml:space="preserve">
<style type="text/css">
	.st0{fill:#010101;}
</style>
<g id="XMLID_52_">
	<path id="XMLID_67_" class="st0" d="M89.7,54.4v-4.8c0-0.9-0.7-1.6-1.6-1.6h-3.2v-1.6h3.2c0.9,0,1.6-0.7,1.6-1.6V40
		c0-0.9-0.7-1.6-1.6-1.6h-3.2c-4.4,0-8,3.6-8,8V48h-1.6c-0.9,0-1.6,0.7-1.6,1.6v4.8h-3.2V33.6c0-2.6-2.2-4.8-4.8-4.8H51.2
		c-0.2-1.5-0.7-2.9-1.4-4.2l2.7-2.7c0.4-0.4,0.6-1,0.4-1.5L51.3,14c-0.1-0.5-0.4-0.8-0.8-1L44,9.8c-0.1,0-0.2,0-0.3-0.1l0,0
		L12.6,0.7C11.7,0.3,10.7,0,9.7,0C7.1,0,4.8,1.6,4,4.1c-2.6,7.8-2.9,16-1.1,24l5,20.8c-0.9,1.1-1.4,2.4-1.4,3.9v4l-5.8,4.3
		c-0.4,0.3-0.6,0.8-0.6,1.3v8c0,0.3,0.1,0.7,0.3,1l4.8,6.4c0.4,0.6,1.1,0.8,1.8,0.6s1.1-0.8,1.1-1.5v-7.3l2.3-2.3h5.1l2.3,2.3v7.3
		c0,0.7,0.4,1.3,1.1,1.5c0.2,0.1,0.3,0.1,0.5,0.1c0.5,0,1-0.2,1.3-0.6l4.8-6.4c0.2-0.3,0.3-0.6,0.3-1v-8c0-0.5-0.2-1-0.6-1.3
		l-5.8-4.3v-4c0-1.6-0.6-3-1.6-4.1l1.4-27.8l17,14.3c-2.5,3-4,6.9-4,11.1v17.9c-1.9,0.7-3.2,2.4-3.2,4.5c0,2.6,2.2,4.8,4.8,4.8h6.4
		v3.2h-8c-6.2,0-11.2,5-11.2,11.2s5,11.2,11.2,11.2h54.4c6.2,0,11.2-5,11.2-11.2s-5-11.2-11.2-11.2h-8v-3.2h16
		c2.6,0,4.8-2.2,4.8-4.8V64C99.3,58.7,95,54.4,89.7,54.4L89.7,54.4z M80.1,46.4c0-2.6,2.2-4.8,4.8-4.8h1.6v1.6h-1.6
		c-1.8,0-3.2,1.4-3.2,3.2V48h-1.6V46.4z M76.9,51.2h9.6v3.2h-9.6V51.2z M67.3,33.6V56v8H41.7v-4.8c0-1.8,1.4-3.2,3.2-3.2h14.4
		c2.6,0,4.8-2.2,4.8-4.8V38.4c0-2.6-2.2-4.8-4.8-4.8H43.2c2-1,4.2-1.6,6.6-1.6h16C66.6,32,67.3,32.7,67.3,33.6z M19.1,16.7l-2.2-7.3
		l26.4,13.2c2.5,1.3,4.2,3.6,4.7,6.3c-3.6,0.4-7,1.8-9.6,4.1L19.1,16.7z M35.5,13.7l-0.6,1.1L15.7,5.2l-0.1-0.2L41,12.2l-0.3,0.6
		h-3.8C36.3,12.8,35.8,13.1,35.5,13.7L35.5,13.7z M48.4,15.5l1.2,4.8L47.9,22c-0.9-0.9-1.9-1.7-3.1-2.3l-6.9-3.5l0.1-0.2h3.8
		c0.6,0,1.2-0.3,1.4-0.9l0.9-1.8L48.4,15.5z M7,5.1C7.4,4,8.5,3.2,9.7,3.2c1.2,0,2.3,0.8,2.7,2l3.8,12.6l-1.4,28.9
		c-0.6-0.2-1.1-0.3-1.7-0.3c-0.8,0-1.5,0.2-2.2,0.4L6.1,27.3C4.3,20,4.6,12.3,7,5.1z M16.1,56H9.7v-3.2c0-1.8,1.4-3.2,3.2-3.2
		c1.8,0,3.2,1.4,3.2,3.2V56z M22.5,69.9L20.9,72v-3.2c0-0.4-0.2-0.8-0.5-1.1l-3.2-3.2C17,64.2,16.5,64,16.1,64H9.7
		c-0.4,0-0.8,0.2-1.1,0.5l-3.2,3.2c-0.3,0.3-0.5,0.7-0.5,1.1V72l-1.6-2.1v-6.7l5.3-4h8.5l5.3,4V69.9z M35.3,46.4
		c0-3.7,1.4-7.1,3.7-9.6h20.3c0.9,0,1.6,0.7,1.6,1.6v12.8c0,0.9-0.7,1.6-1.6,1.6H44.9c-3.5,0-6.4,2.9-6.4,6.4V64h-3.2L35.3,46.4z
		 M32.1,68.8c0-0.9,0.7-1.6,1.6-1.6h33.6v3.2H41.7h-8C32.8,70.4,32.1,69.7,32.1,68.8L32.1,68.8z M92,91.2c0.3-0.5,0.5-1,0.7-1.6h1.7
		c-0.2,1-0.6,2-1.2,2.8L92,91.2z M92.7,86.4c-0.2-0.6-0.4-1.1-0.7-1.6l1.2-1.2c0.6,0.8,1,1.8,1.2,2.8L92.7,86.4z M89.7,88
		c0,1.8-1.4,3.2-3.2,3.2h-8H65.7H52.9H40.1h-8c-1.8,0-3.2-1.4-3.2-3.2c0-1.8,1.4-3.2,3.2-3.2h8h12.8h12.8h12.8h8
		C88.3,84.8,89.7,86.2,89.7,88z M38.5,94.4V96h-3.2v-1.6H38.5z M41.7,94.4h3.2V96h-3.2V94.4z M48.1,94.4h3.2V96h-3.2V94.4z
		 M54.5,94.4h3.2V96h-3.2V94.4z M60.9,94.4h3.2V96h-3.2V94.4z M67.3,94.4h3.2V96h-3.2V94.4z M73.7,94.4h3.2V96h-3.2V94.4z
		 M80.1,94.4h3.2V96h-3.2V94.4z M26.6,84.8c-0.3,0.5-0.5,1-0.7,1.6h-1.7c0.2-1,0.6-2,1.2-2.8L26.6,84.8z M26,89.6
		c0.2,0.6,0.4,1.1,0.7,1.6l-1.2,1.2c-0.6-0.8-1-1.8-1.2-2.8H26z M35.3,81.6V80h3.2v1.6H35.3z M80.1,81.6V80h3.2v1.6H80.1z
		 M76.9,81.6h-3.2V80h3.2V81.6z M70.5,81.6h-3.2V80h3.2V81.6z M64.1,81.6h-3.2V80h3.2V81.6z M57.7,81.6h-3.2V80h3.2V81.6z
		 M51.3,81.6h-3.2V80h3.2V81.6z M44.9,81.6h-3.2V80h3.2V81.6z M32.1,81.6c-1.2,0-2.3,0.3-3.2,0.9l-1.2-1.2c1.3-0.8,2.8-1.3,4.4-1.3
		V81.6z M27.7,94.7l1.2-1.2c1,0.6,2,0.9,3.2,0.9V96C30.5,96,29,95.5,27.7,94.7z M86.5,94.4c1.2,0,2.3-0.3,3.2-0.9l1.2,1.2
		c-1.3,0.8-2.8,1.3-4.4,1.3L86.5,94.4z M90.9,81.3l-1.2,1.2c-1-0.6-2-0.9-3.2-0.9V80C88.2,80,89.7,80.5,90.9,81.3L90.9,81.3z
		 M75.3,76.8h-32v-3.2h25.6h6.4V76.8z M96.1,68.8c0,0.9-0.7,1.6-1.6,1.6H76.9h-6.4v-4.8v-8h19.2c3.5,0,6.4,2.9,6.4,6.4V68.8z"/>
	<path id="XMLID_64_" class="st0" d="M11.3,8.8c0-1.3-1.1-2.4-2.4-2.4S6.5,7.5,6.5,8.8s1.1,2.4,2.4,2.4S11.3,10.1,11.3,8.8z
		 M8.9,9.6c-0.4,0-0.8-0.4-0.8-0.8C8.1,8.4,8.5,8,8.9,8c0.4,0,0.8,0.4,0.8,0.8C9.7,9.2,9.4,9.6,8.9,9.6z"/>
	<path id="XMLID_61_" class="st0" d="M42.5,28.8c1.3,0,2.4-1.1,2.4-2.4S43.8,24,42.5,24c-1.3,0-2.4,1.1-2.4,2.4S41.2,28.8,42.5,28.8
		z M42.5,25.6c0.4,0,0.8,0.4,0.8,0.8s-0.4,0.8-0.8,0.8c-0.4,0-0.8-0.4-0.8-0.8S42.1,25.6,42.5,25.6z"/>
	<path id="XMLID_7_" class="st0" d="M81.3,89.6h5.2v-3.2h-5.2c-0.6-1-1.6-1.6-2.8-1.6c-1.2,0-2.2,0.6-2.8,1.6h-7.3
		c-0.6-1-1.6-1.6-2.8-1.6c-1.2,0-2.2,0.6-2.8,1.6h-7.3c-0.6-1-1.6-1.6-2.8-1.6s-2.2,0.6-2.8,1.6h-7.3c-0.6-1-1.6-1.6-2.8-1.6
		s-2.2,0.6-2.8,1.6h-5.2v3.2h5.2c0.6,1,1.6,1.6,2.8,1.6s2.2-0.6,2.8-1.6h7.3c0.6,1,1.6,1.6,2.8,1.6s2.2-0.6,2.8-1.6H63
		c0.6,1,1.6,1.6,2.8,1.6c1.2,0,2.2-0.6,2.8-1.6h7.3c0.6,1,1.6,1.6,2.8,1.6C79.7,91.2,80.7,90.6,81.3,89.6L81.3,89.6z"/>
	<path id="XMLID_6_" class="st0" d="M54.5,59.2h8v3.2h-8V59.2z"/>
	<path id="XMLID_5_" class="st0" d="M72.1,59.2h3.2v9.6h-3.2V59.2z"/>
	<path id="XMLID_4_" class="st0" d="M76.9,59.2h3.2v9.6h-3.2V59.2z"/>
	<path id="XMLID_3_" class="st0" d="M81.7,59.2h3.2v9.6h-3.2V59.2z"/>
	<path id="XMLID_53_" class="st0" d="M16.4,91.2l2.6-3.9c0.3-0.5,0.4-1,0.1-1.5c-0.2-0.5-0.7-0.9-1.2-0.9l-9.6-1.6
		c-0.4-0.1-0.9,0-1.2,0.3l-6.4,4.8c-0.4,0.3-0.6,0.7-0.6,1.2c0,0.5,0.1,0.9,0.5,1.2l4.3,4.3v2.5c0,0.5,0.2,0.9,0.6,1.2
		c0.3,0.3,0.7,0.4,1,0.4c0.1,0,0.2,0,0.2,0l11.2-1.6c0.5-0.1,1-0.4,1.2-0.9c0.2-0.5,0.2-1.1-0.1-1.5L16.4,91.2z M13.2,92.1l1.8,2.7
		l-6.9,1v-1.4c0-0.4-0.2-0.8-0.5-1.1l-3.5-3.5l4.4-3.3l6.5,1.1l-1.8,2.7C12.8,90.9,12.8,91.6,13.2,92.1z"/>
</g>
</svg>
