<?xml version="1.0" encoding="utf-8"?>
<!-- Generator: Adobe Illustrator 19.0.0, SVG Export Plug-In . SVG Version: 6.00 Build 0)  -->
<svg version="1.1" id="Layer_1" xmlns="http://www.w3.org/2000/svg" xmlns:xlink="http://www.w3.org/1999/xlink" x="0px" y="0px"
	 viewBox="0 0 100 100" style="enable-background:new 0 0 100 100;" xml:space="preserve">
<style type="text/css">
	.st0{fill:#010101;}
</style>
<g id="XMLID_86_">
	<g id="XMLID_87_">
		<path id="XMLID_88_" class="st0" d="M72.8,78.7V62.8c0-2.4-1.9-4.3-4.3-4.3H12.7c-2.4,0-4.3,1.9-4.3,4.3v15.9
			C6.6,79.3,5.3,81,5.3,83c0,2.5,2,4.5,4.5,4.5h61.6c2.5,0,4.5-2,4.5-4.5C75.9,81,74.6,79.3,72.8,78.7z M11.3,62.8
			c0-0.8,0.6-1.4,1.4-1.4h55.8c0.8,0,1.4,0.6,1.4,1.4v15.7H11.3V62.8z M71.4,84.7H9.8c-0.9,0-1.6-0.7-1.6-1.6c0-0.9,0.7-1.6,1.6-1.6
			h61.6c0.9,0,1.6,0.7,1.6,1.6C73,83.9,72.3,84.7,71.4,84.7z"/>
	</g>
</g>
<g id="XMLID_83_">
	<g id="XMLID_84_">
		<path id="XMLID_22_" class="st0" d="M75.7,64.1h-1.3V67h1.3c1.6,0,1.6,0.4,1.6,0.9v19.5c0,1.3-0.9,2.9-1.6,2.9H5.5
			c-0.9,0-2-1.7-2-2.9V67.9c0-0.3,0-0.9,2-0.9h1.3v-2.9H5.5c-1.3,0-2.4,0.2-3.2,0.7c-1.2,0.7-1.8,1.8-1.8,3.2v19.5
			c0,1.2,0.5,2.6,1.3,3.7c1,1.3,2.3,2.1,3.6,2.1h1.3v6.2h2.9v-6.2h63.3v6.2h2.9v-6.2c2.9-0.1,4.5-3.5,4.5-5.8V67.9
			C80.3,66.5,79.7,64.1,75.7,64.1z"/>
	</g>
</g>
<g id="XMLID_80_">
	<g id="XMLID_81_">
		<rect id="XMLID_21_" x="16.1" y="67.2" class="st0" width="3.1" height="2.9"/>
	</g>
</g>
<g id="XMLID_77_">
	<g id="XMLID_78_">
		<rect id="XMLID_20_" x="62" y="67.2" class="st0" width="3.3" height="2.9"/>
	</g>
</g>
<g id="XMLID_74_">
	<g id="XMLID_75_">
		<rect id="XMLID_19_" x="39.1" y="67.2" class="st0" width="3.1" height="2.9"/>
	</g>
</g>
<g id="XMLID_69_">
	<g id="XMLID_70_">
		<path id="XMLID_71_" class="st0" d="M0.7,33.7h47.5V0H0.7V33.7z M3.6,2.9h41.7v27.9H3.6V2.9z"/>
	</g>
</g>
<g id="XMLID_64_">
	<g id="XMLID_65_">
		<path id="XMLID_66_" class="st0" d="M5.3,4.6v24.5h38.3V4.6H5.3z M40.7,26.2H8.2V7.5h32.5L40.7,26.2L40.7,26.2z"/>
	</g>
</g>
<g id="XMLID_59_">
	<g id="XMLID_60_">
		<path id="XMLID_61_" class="st0" d="M49.9,33.9v21.4h27.5V33.9H49.9z M74.6,52.3H52.8V36.8h21.7V52.3z"/>
	</g>
</g>
<g id="XMLID_54_">
	<g id="XMLID_55_">
		<path id="XMLID_56_" class="st0" d="M54.5,38.5v12.1h18.3V38.5H54.5z M69.9,47.7H57.5v-6.3h12.5V47.7z"/>
	</g>
</g>
<g id="XMLID_49_">
	<g id="XMLID_50_">
		<path id="XMLID_51_" class="st0" d="M63.7,6.2c-6.7,0-12.2,5.5-12.2,12.2c0,6.7,5.5,12.2,12.2,12.2s12.2-5.5,12.2-12.2
			C75.9,11.6,70.4,6.2,63.7,6.2z M65.2,27.6V26h-2.9v1.6c-3.9-0.6-7-3.7-7.7-7.6h1.7v-2.9h-1.8c0.6-4.1,3.7-7.3,7.8-7.9v2.1h2.9V9.2
			c4,0.6,7.2,3.9,7.8,7.9h-2V20h1.9C72.2,23.9,69.1,27,65.2,27.6z"/>
	</g>
</g>
<g id="XMLID_46_">
	<g id="XMLID_47_">
		<polygon id="XMLID_8_" class="st0" points="62.2,13.6 62.2,17.1 57.4,17.1 57.4,20 65.2,20 65.2,13.6 		"/>
	</g>
</g>
<g id="XMLID_41_">
	<g id="XMLID_42_">
		<path id="XMLID_43_" class="st0" d="M91.4,91.8L91.4,91.8V57.5h-2.9v34.3h-7.7v7.5H99v-7.5L91.4,91.8L91.4,91.8z M96.1,96.4H83.6
			v-1.7h12.5V96.4z"/>
	</g>
</g>
<g id="XMLID_36_">
	<g id="XMLID_37_">
		<path id="XMLID_38_" class="st0" d="M83.8,20v33.7h4.6v2.4h2.9v-2.4h4.6V20H83.8z M93,46.2h-4.6v2.9H93v1.7h-6.3V22.9H93L93,46.2
			L93,46.2z"/>
	</g>
</g>
<g id="XMLID_33_">
	<g id="XMLID_34_">
		
			<rect id="XMLID_3_" x="18.4" y="12.3" transform="matrix(-0.7071 0.7071 -0.7071 -0.7071 44.9022 8.9399)" class="st0" width="4.4" height="2.9"/>
	</g>
</g>
<g id="XMLID_30_">
	<g id="XMLID_31_">
		
			<rect id="XMLID_2_" x="16.8" y="14.6" transform="matrix(-0.7071 0.7071 -0.7071 -0.7071 53.1033 10.1596)" class="st0" width="15.2" height="2.9"/>
	</g>
</g>
<g id="XMLID_27_">
	<g id="XMLID_28_">
		
			<rect id="XMLID_1_" x="26.1" y="18.5" transform="matrix(-0.7071 0.7071 -0.7071 -0.7071 62.3928 14.0094)" class="st0" width="4.4" height="2.9"/>
	</g>
</g>
</svg>
