<?xml version="1.0" encoding="utf-8"?>
<!-- Generator: Adobe Illustrator 19.0.0, SVG Export Plug-In . SVG Version: 6.00 Build 0)  -->
<svg version="1.1" id="Layer_1" xmlns="http://www.w3.org/2000/svg" xmlns:xlink="http://www.w3.org/1999/xlink" x="0px" y="0px"
	 viewBox="0 0 100 100" style="enable-background:new 0 0 100 100;" xml:space="preserve">
<style type="text/css">
	.st0{fill:#010101;}
</style>
<g id="XMLID_20_">
	<g id="XMLID_21_">
		<g id="XMLID_22_">
			<path id="XMLID_36_" class="st0" d="M98.1,59.5H66.9v-3.1h1.6c0.9,0,1.6-0.7,1.6-1.6s-0.7-1.6-1.6-1.6h-1.6v-1.6
				c0-3.4,2.8-6.2,6.2-6.2s6.2,2.8,6.2,6.2c0,0.9,0.7,1.6,1.6,1.6s1.6-0.7,1.6-1.6c0-5.2-4.2-9.3-9.3-9.3s-9.3,4.2-9.3,9.3v7.8H37.7
				c0.8-0.9,1.2-2,1.2-3.1v-9.3c0-0.9-0.7-1.6-1.6-1.6H14c-0.9,0-1.6,0.7-1.6,1.6v9.3c0,1.2,0.4,2.3,1.2,3.1H1.6
				c-0.9,0-1.6,0.7-1.6,1.6v37.4c0,0.9,0.7,1.6,1.6,1.6h96.5c0.9,0,1.6-0.7,1.6-1.6V61.1C99.6,60.2,98.9,59.5,98.1,59.5z M15.6,48.6
				h20.2v7.8c0,0.9-0.7,1.6-1.6,1.6H17.1c-0.9,0-1.6-0.7-1.6-1.6V48.6z M24.9,96.9H3.1V78.2h21.8V96.9z M24.9,75.1H3.1V62.6h4.7
				c0,0.9,0.7,1.6,1.6,1.6h9.3c0.9,0,1.6-0.7,1.6-1.6h4.7V75.1z M71.6,96.9H28V62.6h43.6V96.9z M96.5,96.9H74.7V78.2h21.8V96.9z
				 M96.5,75.1H74.7V62.6h4.7c0,0.9,0.7,1.6,1.6,1.6h9.3c0.9,0,1.6-0.7,1.6-1.6h4.7V75.1z"/>
			<path id="XMLID_33_" class="st0" d="M31.1,86h37.4c0.9,0,1.6-0.7,1.6-1.6V68.9c0-0.9-0.7-1.6-1.6-1.6H31.1
				c-0.9,0-1.6,0.7-1.6,1.6v15.6C29.6,85.3,30.3,86,31.1,86z M32.7,70.4h34.2v12.5H32.7V70.4z"/>
			<path id="XMLID_9_" class="st0" d="M59.2,90.7H40.5c-0.9,0-1.6,0.7-1.6,1.6s0.7,1.6,1.6,1.6h18.7c0.9,0,1.6-0.7,1.6-1.6
				S60,90.7,59.2,90.7z"/>
			<path id="XMLID_28_" class="st0" d="M17.1,23.7h65.4c0.9,0,1.6-0.7,1.6-1.6V1.9c0-0.9-0.7-1.6-1.6-1.6H17.1
				c-0.9,0-1.6,0.7-1.6,1.6v20.2C15.6,23,16.3,23.7,17.1,23.7z M51.4,3.5h29.6v17.1H51.4V3.5z M18.7,3.5h29.6v17.1H18.7V3.5z"/>
			<path id="XMLID_5_" class="st0" d="M38.9,11.3H26.5c-0.9,0-1.6,0.7-1.6,1.6s0.7,1.6,1.6,1.6h12.5c0.9,0,1.6-0.7,1.6-1.6
				S39.8,11.3,38.9,11.3z"/>
			<path id="XMLID_4_" class="st0" d="M73.2,11.3H60.7c-0.9,0-1.6,0.7-1.6,1.6s0.7,1.6,1.6,1.6h12.5c0.9,0,1.6-0.7,1.6-1.6
				S74,11.3,73.2,11.3z"/>
			<path id="XMLID_3_" class="st0" d="M17.7,38.8c-1.3,0.7-2.1,2.1-2.2,3.6c0,0.9,0.7,1.6,1.6,1.6s1.6-0.7,1.6-1.6
				c0-0.3,0.2-0.5,0.9-1.1c1.3-0.7,2.1-2.1,2.2-3.6c-0.1-1.5-0.9-2.8-2.2-3.6c-0.8-0.6-0.9-0.8-0.9-1.1s0.2-0.5,0.9-1.1
				c1.3-0.7,2.1-2.1,2.2-3.6c0-0.9-0.7-1.6-1.6-1.6s-1.6,0.7-1.6,1.6c0,0.3-0.2,0.5-0.9,1.1c-1.3,0.7-2.1,2.1-2.2,3.6
				c0.1,1.5,0.9,2.8,2.2,3.6c0.8,0.6,0.9,0.8,0.9,1.1S18.5,38.2,17.7,38.8z"/>
			<path id="XMLID_2_" class="st0" d="M27.4,32c1.3-0.7,2.1-2.1,2.2-3.6c0-0.9-0.7-1.6-1.6-1.6s-1.6,0.7-1.6,1.6
				c0,0.3-0.2,0.5-0.9,1.1c-1.3,0.7-2.1,2.1-2.2,3.6c0.1,1.5,0.9,2.8,2.2,3.6c0.8,0.6,0.9,0.8,0.9,1.1s-0.2,0.5-0.9,1.1
				c-1.3,0.7-2.1,2.1-2.2,3.6c0,0.9,0.7,1.6,1.6,1.6s1.6-0.7,1.6-1.6c0-0.3,0.2-0.5,0.9-1.1c1.3-0.7,2.1-2.1,2.2-3.6
				c-0.1-1.5-0.9-2.8-2.2-3.6c-0.8-0.6-0.9-0.8-0.9-1.1S26.6,32.6,27.4,32z"/>
			<path id="XMLID_1_" class="st0" d="M35.2,32c1.3-0.7,2.1-2.1,2.2-3.6c0-0.9-0.7-1.6-1.6-1.6s-1.6,0.7-1.6,1.6
				c0,0.3-0.2,0.5-0.9,1.1c-1.3,0.7-2.1,2.1-2.2,3.6c0.1,1.5,0.9,2.8,2.2,3.6c0.8,0.6,0.9,0.8,0.9,1.1s-0.2,0.5-0.9,1.1
				c-1.3,0.7-2.1,2.1-2.2,3.6c0,0.9,0.7,1.6,1.6,1.6c0.9,0,1.6-0.7,1.6-1.6c0-0.3,0.2-0.5,0.9-1.1c1.3-0.7,2.1-2.1,2.2-3.6
				c-0.1-1.5-0.9-2.8-2.2-3.6c-0.8-0.6-0.9-0.8-0.9-1.1S34.4,32.6,35.2,32z"/>
		</g>
	</g>
</g>
</svg>
