<?xml version="1.0" encoding="utf-8"?>
<!-- Generator: Adobe Illustrator 19.0.0, SVG Export Plug-In . SVG Version: 6.00 Build 0)  -->
<svg version="1.1" id="Layer_1" xmlns="http://www.w3.org/2000/svg" xmlns:xlink="http://www.w3.org/1999/xlink" x="0px" y="0px"
	 viewBox="0 0 100 100" style="enable-background:new 0 0 100 100;" xml:space="preserve">
<style type="text/css">
	.st0{fill:#010101;}
</style>
<path id="XMLID_20_" class="st0" d="M8.3,100H15c0.9,0,1.7-0.7,1.7-1.7V86.7h40v11.7c0,0.9,0.7,1.7,1.7,1.7h15h10h15
	c0.9,0,1.7-0.7,1.7-1.7v-25c0-0.4-0.2-0.9-0.5-1.2l-2.8-2.8V55V1.7C96.7,0.7,95.9,0,95,0H8.3C3.7,0,0,3.7,0,8.3v83.3
	C0,96.3,3.7,100,8.3,100L8.3,100z M75,96.7V80h6.7v16.7H75z M96.7,96.7H85V78.3c0-0.9-0.7-1.7-1.7-1.7h-10c-0.9,0-1.7,0.7-1.7,1.7
	v18.3H60V74l18.3-18.3l7.2,7.2c0.5,0.5,1.2,0.6,1.8,0.4c0.6-0.3,1-0.9,1-1.5v-5h5V70c0,0.4,0.2,0.9,0.5,1.2l2.8,2.8V96.7z M8.3,3.3
	h85v50h-6.7c-0.9,0-1.7,0.7-1.7,1.7v2.6l-5.5-5.5c-0.7-0.7-1.7-0.7-2.4,0l-20,20c-0.3,0.3-0.5,0.7-0.5,1.2v10h-40V15
	c0-0.9-0.7-1.7-1.7-1.7H8.3c-2.8,0-5-2.2-5-5S5.6,3.3,8.3,3.3L8.3,3.3z M3.3,15c1.4,1,3.1,1.7,5,1.7h5v80h-5c-2.8,0-5-2.2-5-5V15z"
	/>
<path id="XMLID_16_" class="st0" d="M23.3,68.3h10c0.9,0,1.7-0.7,1.7-1.7c0-2.2,1.4-4,3.3-4.7v4.7c0,0.9,0.7,1.7,1.7,1.7h11.7
	c0.9,0,1.7-0.7,1.7-1.7V45h33.3c0.9,0,1.7-0.7,1.7-1.7V10c0-0.9-0.7-1.7-1.7-1.7H23.3c-0.9,0-1.7,0.7-1.7,1.7v56.7
	C21.7,67.6,22.4,68.3,23.3,68.3z M85,41.7H65v-3.3h5c0.9,0,1.7-0.7,1.7-1.7c0-4-2.9-7.4-6.7-8.2V11.7h20V41.7z M43.3,11.7v16.7h-1.7
	v3.3H45c0.9,0,1.7-0.7,1.7-1.7V11.7h15V30c0,0.9,0.7,1.7,1.7,1.7c2.2,0,4,1.4,4.7,3.3h-4.7c-0.9,0-1.7,0.7-1.7,1.7v5h-10
	c-0.9,0-1.7,0.7-1.7,1.7V65h-8.3v-5c0-0.9-0.7-1.7-1.7-1.7c-4,0-7.4,2.9-8.2,6.7H25V31.7h11.7v-3.3H25V11.7H43.3z"/>
<path id="XMLID_3_" class="st0" d="M20,76.7h3.3V80H20V76.7z"/>
<path id="XMLID_2_" class="st0" d="M26.7,76.7H30V80h-3.3V76.7z"/>
<path id="XMLID_1_" class="st0" d="M33.3,76.7h3.3V80h-3.3V76.7z"/>
</svg>
