<?xml version="1.0" encoding="utf-8"?>
<!-- Generator: Adobe Illustrator 19.0.0, SVG Export Plug-In . SVG Version: 6.00 Build 0)  -->
<svg version="1.1" id="Layer_1" xmlns="http://www.w3.org/2000/svg" xmlns:xlink="http://www.w3.org/1999/xlink" x="0px" y="0px"
	 viewBox="0 0 100 100" style="enable-background:new 0 0 100 100;" xml:space="preserve">
<style type="text/css">
	.st0{fill:#010101;}
</style>
<path id="XMLID_45_" class="st0" d="M99.8,43v-5.3c0-4-3-7.4-6.9-8l-4.4-0.6v-2.2c2.9-2,4.8-5.4,4.8-9.2v-1.6h3.2v-3.2h-3.2v-1.6
	c0-4.4-3.6-8-8-8h-6.4c-4.4,0-8,3.6-8,8v1.6h-3.2v3.2h3.2v1.6c0,3.1,1.3,6,3.4,8h-9.8V4.8c0-2.7-2.2-4.8-4.8-4.8H27.4
	c-2.7,0-4.8,2.2-4.8,4.8v30.5H0.1V45h3.2v42.4l-2,1l16.1,8h54.9l0.3,3.2h19l3.4-37v0c2.7-0.1,4.8-2.3,4.8-5c0-1.3-0.5-2.6-1.5-3.5
	l-2.7-2.7l2.7-3.9C99.3,46.2,99.8,44.6,99.8,43z M87.5,32.2l0.7,0.1l-1.9,4.9l-1.9-1.9L87.5,32.2z M85.3,29.9l-3.2,3.2l-3.2-3.2
	v-1.4c1,0.3,2.1,0.5,3.2,0.5c1.1,0,2.2-0.2,3.2-0.5V29.9z M19.4,90h45v3.2h-45V90z M64.4,86.8h-45v-3.2h45V86.8z M35.5,67.5H13V51.4
	h22.5V67.5z M64.4,51.4H58V45h6.4V51.4z M64.4,37.7v4.1H58v-6.4l6.8,0C64.5,36.1,64.4,36.9,64.4,37.7z M54.7,41.8h-9.6v-6.4l9.6,0
	V41.8z M45.1,45h9.6v6.4h-9.6V45z M45.1,54.7h9.6v6.4h-9.6V54.7z M45.1,64.3h9.6v6.4h-9.6V64.3z M45.1,73.9h9.6v6.4h-9.6V73.9z
	 M58,80.4v-6.4h12.3l0.6,6.4H58z M70,70.7H58v-6.4h11.3c0.1,0,0.1,0,0.2,0L70,70.7z M58,61.1v-6.4h6.4v4.8c0,0.6,0.1,1.1,0.3,1.6H58
	z M66.7,32.2l-24.8,0v48.2h-3.2V28.9h37v0.2l-4.4,0.6C69.5,30,67.9,30.9,66.7,32.2z M76.7,32.2l3.1,3.1l-1.9,1.9L76,32.3L76.7,32.2z
	 M90.1,11.3v1.6h-4.5l1-6.2C88.6,7.2,90.1,9.1,90.1,11.3z M80.8,6.4h2.6l-1.1,6.4h-0.5L80.8,6.4z M74,11.3c0-2.2,1.5-4,3.5-4.6
	l1,6.2H74V11.3z M74,17.7v-1.6h16.1v1.6c0,4.4-3.6,8-8,8C77.6,25.7,74,22.1,74,17.7z M25.8,4.8c0-0.9,0.7-1.6,1.6-1.6h32.1
	c0.9,0,1.6,0.7,1.6,1.6v20.9H35.5v9.6h-9.6V4.8z M3.3,38.6h32.1v3.2H3.3V38.6z M6.5,45h28.9v3.2H9.7v22.5h25.7v9.6H17.4L6.5,85.8V45
	z M16.2,84.6v7.7l-7.7-3.8L16.2,84.6z M67.6,93.2v-9.6h3.5l0.9,9.6H67.6z M72.5,63c0.1-0.1,0.2-0.2,0.3-0.3h7.7v33.8h-5L72.5,63z
	 M88.6,96.4h-5V62.7h1.6c1.6,0,3-0.8,3.9-2l0.6-0.9l1.4,1.4c0.2,0.2,0.3,0.3,0.5,0.4l0,0.9L88.6,96.4z M96,56.4
	c0.3,0.3,0.5,0.8,0.5,1.3c0,1-0.8,1.8-1.8,1.8c-0.5,0-0.9-0.2-1.3-0.5l-1.8-1.8l2.1-3L96,56.4z M96.5,43c0,1-0.3,2-0.9,2.8
	l-9.1,13.1c-0.3,0.4-0.8,0.7-1.3,0.7c-0.9,0-1.6-0.7-1.6-1.6v-0.6c0-0.3,0.1-0.7,0.3-0.9l8.7-11.6c0.4-0.6,0.6-1.2,0.6-1.9v-2.7
	h-3.2v2.7l-1.3,1.8c-0.9-0.8-2.1-1.3-3.3-1.3c-2.8,0-5,2.3-5,5c0,1.3,0.5,2.6,1.5,3.5l0.8,0.8l-1.3,1.7c-0.6,0.8-1,1.8-1,2.9v0.6
	c0,0.6,0.1,1.1,0.3,1.6H74V40.2h-3.2v19.3c0,0.9-0.7,1.6-1.6,1.6c-0.9,0-1.6-0.7-1.6-1.6V37.7c0-2.4,1.8-4.4,4.1-4.8l1-0.1l3.9,10.3
	l5.5-5.5l5.5,5.5l3.9-10.3l1,0.1c2.4,0.3,4.1,2.4,4.1,4.8V43z M84.2,49.7c-0.3-0.3-0.5-0.8-0.5-1.3c0-1,0.8-1.8,1.8-1.8
	c0.5,0,0.9,0.2,1.3,0.5l0.1,0.1l-2.2,2.9L84.2,49.7z"/>
<path id="XMLID_39_" class="st0" d="M58,9.6H29v12.9H58V9.6z M45.1,12.9h3.2v6.4h-3.2V12.9z M41.9,19.3h-3.2v-6.4h3.2V19.3z
	 M32.2,12.9h3.2v6.4h-3.2V12.9z M54.7,19.3h-3.2v-6.4h3.2V19.3z"/>
</svg>
