<?xml version="1.0" encoding="utf-8"?>
<!-- Generator: Adobe Illustrator 19.0.0, SVG Export Plug-In . SVG Version: 6.00 Build 0)  -->
<svg version="1.1" id="Layer_1" xmlns="http://www.w3.org/2000/svg" xmlns:xlink="http://www.w3.org/1999/xlink" x="0px" y="0px"
	 viewBox="0 0 100 100" style="enable-background:new 0 0 100 100;" xml:space="preserve">
<style type="text/css">
	.st0{fill:#010101;}
</style>
<path id="XMLID_38_" class="st0" d="M35.1,72.9H25c-0.9,0-1.7,0.7-1.7,1.7v10c0,0.9,0.7,1.7,1.7,1.7h10c0.9,0,1.7-0.7,1.7-1.7v-10
	C36.7,73.6,36,72.9,35.1,72.9z M33.4,82.9h-6.7v-6.7h6.7V82.9z"/>
<path id="XMLID_32_" class="st0" d="M58.4,54.5H41.7c-1.8,0-3.3,1.5-3.3,3.3v6.7c0,1.8,1.5,3.3,3.3,3.3h16.7c1.8,0,3.3-1.5,3.3-3.3
	v-6.7C61.7,56,60.3,54.5,58.4,54.5z M58.4,59.6h-6.7v-1.7h6.7V59.6z M48.4,57.9v1.7h-6.7v-1.7H48.4z M41.7,62.9h6.7v1.7h-6.7V62.9z
	 M51.7,64.6v-1.7h6.7v1.7H51.7z"/>
<path id="XMLID_21_" class="st0" d="M91.6,88c-0.4-2.2-1.7-4.1-3.5-5.4c-1.9-1.2-4.1-1.7-6.3-1.2V51.9l3,3c2,2,5.3,2,7.4,0
	c2-2,2-5.3,0-7.4L81.8,37.2v-21c1.8,0,3.3-1.5,3.3-3.3V9.5c0-1.8-1.5-3.3-3.3-3.3H65.1c-1.8,0-3.3,1.5-3.3,3.3v3.3
	c0,1.8,1.5,3.3,3.3,3.3v4.3L53.6,9c-2-1.9-5.1-1.9-7.1,0L8,47.5c-2,2-2,5.3,0,7.4s5.3,2,7.4,0l3-3v35C16.6,84.8,13.6,84,11,85
	c-2.6,1-4.3,3.5-4.3,6.3c-3.7,0-6.7,3-6.7,6.7c0,0.9,0.7,1.7,1.7,1.7h96.8c0.9,0,1.7-0.7,1.7-1.7C100.1,93,96.5,88.8,91.6,88z
	 M76.7,84.6C76.7,84.6,76.8,84.6,76.7,84.6l0-10.1c0-0.9-0.7-1.7-1.7-1.7h-10c-0.9,0-1.7,0.7-1.7,1.7v10c0,0.9,0.7,1.7,1.7,1.7h10
	c0.3,0,0.6-0.1,0.9-0.3c-0.6,1.1-0.8,2.4-0.9,3.6v0.2c-3.3,0.7-5.8,3.2-6.5,6.5h-6.9v-25c0-0.9-0.7-1.7-1.7-1.7h-20
	c-0.9,0-1.7,0.7-1.7,1.7v25H28.2c-0.6-3.6-3.1-6.5-6.5-7.8v-39h56.7V83C77.8,83.4,77.2,84,76.7,84.6z M73.4,76.2v6.7h-6.7v-6.7H73.4
	z M65.1,9.5h16.7v3.3H65.1V9.5z M68.4,16.2h10v17.7l-10-10V16.2z M13,52.5c-0.7,0.7-1.9,0.7-2.6,0c-0.7-0.7-0.7-1.9,0-2.6l38.5-38.5
	c0.7-0.7,1.7-0.7,2.4,0l38.5,38.5c0.7,0.7,0.7,1.9,0,2.6c-0.7,0.7-1.9,0.7-2.6,0L53.6,19c-2-2-5.1-2-7.1,0L13,52.5z M48.9,21.4
	c0.7-0.7,1.7-0.7,2.4,0l24.8,24.8h-52L48.9,21.4z M3.8,96.3c0.9-1.5,2.8-2.1,4.3-1.3c0.6,0.3,1.4,0.2,1.9-0.3
	c0.5-0.5,0.6-1.3,0.3-1.9c-0.2-0.5-0.4-1-0.4-1.5c0-1.6,1.2-3,2.8-3.3s3.2,0.7,3.7,2.2c0.2,0.7,0.9,1.1,1.6,1.1c0.1,0,0.2,0,0.2,0
	c3,0,5.7,2.1,6.5,5H3.8z M41.7,96.3V72.9h16.7v23.4H41.7z M72,96.3c0.7-2,2.5-3.3,4.6-3.3c0.1,0,0.2,0,0.3,0c0.5,0,1-0.2,1.4-0.6
	c0.3-0.4,0.4-1,0.3-1.5c-0.1-0.4-0.2-0.8-0.2-1.3c0-2.8,2.2-5,5-5c2.8,0,5,2.2,5,5c0,0.9,0.7,1.7,1.7,1.7c3,0,5.7,2.1,6.5,5H72z"/>
<path id="XMLID_1_" class="st0" d="M46.7,77.9h-3.3v3.3h1.7v3.3h-1.7v3.3h3.3c0.9,0,1.7-0.7,1.7-1.7v-6.7
	C48.4,78.7,47.7,77.9,46.7,77.9z"/>
</svg>
