<?xml version="1.0" encoding="utf-8"?>
<!-- Generator: Adobe Illustrator 19.0.0, SVG Export Plug-In . SVG Version: 6.00 Build 0)  -->
<svg version="1.1" id="Layer_1" xmlns="http://www.w3.org/2000/svg" xmlns:xlink="http://www.w3.org/1999/xlink" x="0px" y="0px"
	 viewBox="0 0 100 100" style="enable-background:new 0 0 100 100;" xml:space="preserve">
<g id="XMLID_1_">
	<path id="XMLID_138_" d="M6.5,99.3c0-0.4,0-0.7,0-1c0-8.7,0-17.3,0-26c0-13.4,0-26.7,0-40.1c0-0.7,0.2-1.1,0.7-1.5
		C20.4,20.8,33.6,10.9,46.8,1c0.6-0.4,0.9-0.3,1.4,0.1c5.5,4.2,11.1,8.3,16.6,12.4c0.2,0.1,0.3,0.2,0.6,0.4c0-4.4,0-8.7,0-13
		c4.4,0,8.7,0,13.2,0c0,0.4,0,0.7,0,1.1c0,7,0,14,0,21c0,0.6,0.2,1,0.7,1.4c2.8,2.1,5.6,4.2,8.4,6.3c0.5,0.4,0.7,0.8,0.7,1.5
		c0,6.9,0,13.7,0,20.6c0,0.9,0.2,1.5,0.8,2.1c13.7,14.3,7.4,37.7-11.6,43.3c-2.3,0.7-4.7,1-7.1,1c-21.1,0-42.2,0-63.3,0
		C7.1,99.3,6.8,99.3,6.5,99.3z M85.1,51.2c0-5.8,0-11.6,0-17.4c-25.1,0-50.2,0-75.3,0c0,20.8,0,41.5,0,62.2c8.2,0,16.3,0,24.5,0
		c0-14.2,0-28.4,0-42.6c0.4,0,0.7,0,1,0c5.7,0,11.3,0,17,0c0.4,0,0.9-0.2,1.2-0.4c8.2-6.4,17.2-7.9,26.9-4.1
		C82,49.5,83.5,50.4,85.1,51.2z M47.4,73c0,12.6,10.3,23,22.8,23C83,96,93.3,85.8,93.3,73.1c0-12.6-10.3-22.9-22.8-22.9
		C57.8,50.1,47.5,60.4,47.4,73z M81.7,30.4c-0.3-0.2-0.4-0.4-0.6-0.5c-11-8.3-22-16.5-33.1-24.8c-0.5-0.4-0.8-0.3-1.3,0
		C36.2,13.1,25.6,21,15,29c-0.6,0.4-1.1,0.9-1.9,1.4C36.1,30.4,58.8,30.4,81.7,30.4z M37.7,56.7c0,13.1,0,26.2,0,39.2
		c6.6,0,13.1,0,19.8,0C50.6,91.7,46.2,85.8,44.7,78c-1.5-7.8,0.4-14.9,5.2-21.3C45.7,56.7,41.7,56.7,37.7,56.7z M75.2,21.4
		c0-5.8,0-11.5,0-17.1c-2.2,0-4.3,0-6.4,0c0,0.2-0.1,0.3-0.1,0.4c0,3.8,0,7.6,0,11.4c0,0.2,0.1,0.5,0.3,0.7
		C71.1,18.2,73.1,19.7,75.2,21.4z"/>
	<path id="XMLID_120_" d="M31,79.6c-6,0-11.9,0-17.9,0c0-8.7,0-17.4,0-26.2c6,0,11.9,0,17.9,0C31,62.1,31,70.8,31,79.6z M16.4,64.8
		c3.9,0,7.6,0,11.4,0c0-2.7,0-5.4,0-8.1c-3.8,0-7.6,0-11.4,0C16.4,59.4,16.4,62.1,16.4,64.8z M16.3,76.3c3.8,0,7.6,0,11.4,0
		c0-2.7,0-5.4,0-8.1c-3.8,0-7.6,0-11.4,0C16.3,70.9,16.3,73.6,16.3,76.3z"/>
	<path id="XMLID_114_" d="M56.4,85.9c0.6-0.9,1.1-1.8,1.7-2.7c1.1,0.6,2.1,1.1,3.3,1.7c0.2-0.7,0.4-1.2,0.6-1.8
		c0.4-1.1,0.7-2.2,1.1-3.2c0.1-0.4,0-0.6-0.3-0.8c-2.6-1.3-3.9-3.4-3.9-6.3c0-4.3,0-8.5,0-12.8c0-2.1,1.2-3.8,3.2-4.6
		c1.9-0.7,4-0.2,5.4,1.3c0.9,1,1.3,2.1,1.3,3.4c0,1,0,2.1,0,3.2c1,0,2,0,3,0c1.7,0,3.5,0,5.2,0c2.6,0,4.8,2,4.9,4.7
		c0.1,2.3,0.1,4.7,0,7c-0.1,2.2-1.6,3.9-3.7,4.5c-0.2,0-0.3,0.1-0.6,0.2c0.6,1.7,1.1,3.4,1.7,5.2c1.1-0.6,2.2-1.1,3.3-1.7
		c0.6,0.9,1.1,1.8,1.7,2.6C77.1,90.8,65.3,91.7,56.4,85.9z M62.2,66.6C62.2,66.6,62.2,66.6,62.2,66.6c0,2.1,0,4.2,0,6.3
		c0,2,1.4,3.4,3.4,3.4c3.7,0,7.4,0,11.1,0c1.1,0,1.9-0.7,1.9-1.6c0-1-0.8-1.6-1.9-1.6c-2,0-4,0-6,0c-3.1,0-5.2-2.1-5.2-5.2
		c0-2.5,0-5,0-7.6c0-1.2-0.7-2-1.7-1.9c-1,0-1.6,0.7-1.6,1.9C62.2,62.3,62.2,64.5,62.2,66.6z M76.1,85.9c0-0.2,0-0.2,0-0.3
		c-0.6-1.9-1.2-3.7-1.9-5.6c-0.1-0.2-0.4-0.4-0.6-0.4c-2.1,0-4.3,0-6.4,0c-0.4,0-0.6,0.2-0.7,0.6c-0.4,1.4-0.9,2.8-1.4,4.2
		c-0.2,0.5-0.3,1-0.5,1.5C68.5,86.9,72.3,86.9,76.1,85.9z M68.9,66.5c-0.5,2.7,0.5,3.6,3.1,3.1c0-1,0-2.1,0-3.1
		C70.9,66.5,69.9,66.5,68.9,66.5z M78.5,69.9c0.4-2.8-0.6-3.9-3.2-3.3c0,1,0,2,0,3.1C76.4,69.8,77.4,69.8,78.5,69.9z"/>
	<path id="XMLID_110_" d="M55.5,27.1c-5.4,0-10.8,0-16.2,0c0-0.2-0.1-0.5-0.1-0.7c0-3.1,0-6.2,0-9.3c0-0.5,0.2-0.8,0.6-1.1
		c2.3-1.7,4.7-3.5,7-5.2c0.5-0.4,0.8-0.4,1.3,0c2.4,1.8,4.7,3.6,7.1,5.4c0.2,0.2,0.4,0.5,0.4,0.7c0,3.3,0,6.7,0,10
		C55.6,26.9,55.6,27,55.5,27.1z M45.8,23.9c0-2.7,0-5.3,0-8.1c-0.8,0.6-1.4,1.1-2,1.5c-0.9,0.5-1.3,1.2-1.2,2.3c0.1,0.9,0,1.9,0,2.8
		c0,0.5,0,1,0,1.5C43.7,23.9,44.7,23.9,45.8,23.9z M52.4,23.8c0-1.8,0-3.6,0-5.4c0-0.1-0.1-0.3-0.2-0.4c-1-0.8-2-1.5-3.1-2.3
		c0,2.8,0,5.4,0,8.1C50.2,23.8,51.2,23.8,52.4,23.8z"/>
</g>
</svg>
