<?xml version="1.0" encoding="utf-8"?>
<!-- Generator: Adobe Illustrator 19.0.0, SVG Export Plug-In . SVG Version: 6.00 Build 0)  -->
<svg version="1.1" id="Layer_1" xmlns="http://www.w3.org/2000/svg" xmlns:xlink="http://www.w3.org/1999/xlink" x="0px" y="0px"
	 viewBox="-429 941 220 40" style="enable-background:new -429 941 220 40;" xml:space="preserve">
<style type="text/css">
	.st0{fill:#D5DD02;}
</style>
<path id="XMLID_60_" class="st0" d="M-408.8,947.6v1.4h7.9V974h-10.9v1.4h12.3v-27.8H-408.8z M-427.6,948.9h7.7v-1.4h-9.1v27.8h12
	V974h-10.6V948.9z"/>
<g>
	<path class="st0" d="M-390.3,952.1h-3.6V950h9.7v2.1h-3.6v9h-2.6V952.1z"/>
	<path class="st0" d="M-379.1,960l0.9-1.9c0.9,0.7,2.3,1.2,3.7,1.2c1.5,0,2.1-0.5,2.1-1.2c0-2.1-6.5-0.7-6.5-4.8
		c0-1.9,1.5-3.5,4.7-3.5c1.4,0,2.8,0.3,3.9,1l-0.8,2c-1-0.6-2.1-0.9-3.1-0.9c-1.5,0-2.1,0.6-2.1,1.3c0,2,6.5,0.6,6.5,4.7
		c0,1.9-1.5,3.4-4.7,3.4C-376.4,961.3-378.1,960.8-379.1,960z"/>
	<path class="st0" d="M-356.1,962.3c-0.7,0.9-1.8,1.4-3,1.4c-1.7,0-2.8-0.6-4.5-2.4c-3-0.4-5.2-2.7-5.2-5.7c0-3.3,2.6-5.7,6.1-5.7
		c3.5,0,6.1,2.4,6.1,5.7c0,2.6-1.6,4.7-4,5.4c0.5,0.6,1,0.8,1.6,0.8c0.7,0,1.3-0.3,1.8-0.8L-356.1,962.3z M-362.7,959.1
		c2,0,3.5-1.4,3.5-3.6s-1.5-3.6-3.5-3.6c-2,0-3.5,1.4-3.5,3.6S-364.7,959.1-362.7,959.1z"/>
	<path class="st0" d="M-354.8,956.2V950h2.6v6.1c0,2.1,0.9,3,2.5,3c1.6,0,2.5-0.9,2.5-3V950h2.5v6.2c0,3.3-1.9,5.1-5,5.1
		C-352.9,961.3-354.8,959.5-354.8,956.2z"/>
	<path class="st0" d="M-335.1,958.8h-5.2l-1,2.4h-2.6l5-11.1h2.5l5,11.1h-2.7L-335.1,958.8z M-335.9,956.8l-1.8-4.3l-1.8,4.3H-335.9
		z"/>
	<path class="st0" d="M-323.2,961.1l-2.1-3.1h-0.1h-2.2v3.1h-2.6V950h4.8c3,0,4.8,1.5,4.8,4c0,1.7-0.8,2.9-2.3,3.5l2.5,3.6H-323.2z
		 M-325.6,952.1h-2.1v3.9h2.1c1.6,0,2.4-0.7,2.4-1.9C-323.2,952.8-324,952.1-325.6,952.1z"/>
	<path class="st0" d="M-310,959.1v2.1h-8.6V950h8.4v2.1h-5.8v2.4h5.2v2h-5.2v2.6H-310z"/>
	<path class="st0" d="M-304.3,960l0.9-1.9c0.9,0.7,2.3,1.2,3.7,1.2c1.5,0,2.1-0.5,2.1-1.2c0-2.1-6.5-0.7-6.5-4.8
		c0-1.9,1.5-3.5,4.7-3.5c1.4,0,2.8,0.3,3.9,1l-0.8,2c-1-0.6-2.1-0.9-3.1-0.9c-1.5,0-2.1,0.6-2.1,1.3c0,2,6.5,0.6,6.5,4.7
		c0,1.9-1.5,3.4-4.7,3.4C-301.6,961.3-303.3,960.8-304.3,960z"/>
	<path class="st0" d="M-294,955.6c0-3.3,2.6-5.7,6.1-5.7c3.5,0,6.1,2.4,6.1,5.7c0,3.3-2.6,5.7-6.1,5.7
		C-291.4,961.3-294,958.9-294,955.6z M-284.4,955.6c0-2.1-1.5-3.6-3.5-3.6c-2,0-3.5,1.4-3.5,3.6s1.5,3.6,3.5,3.6
		C-285.9,959.1-284.4,957.7-284.4,955.6z"/>
	<path class="st0" d="M-279.9,950h2.6v9h5.6v2.1h-8.1V950z"/>
	<path class="st0" d="M-270.5,956.2V950h2.6v6.1c0,2.1,0.9,3,2.5,3c1.6,0,2.5-0.9,2.5-3V950h2.5v6.2c0,3.3-1.9,5.1-5,5.1
		C-268.7,961.3-270.5,959.5-270.5,956.2z"/>
	<path class="st0" d="M-255.8,952.1h-3.6V950h9.7v2.1h-3.6v9h-2.6V952.1z"/>
	<path class="st0" d="M-248.3,950h2.6v11.1h-2.6V950z"/>
	<path class="st0" d="M-243.8,955.6c0-3.3,2.6-5.7,6.1-5.7c3.5,0,6.1,2.4,6.1,5.7c0,3.3-2.6,5.7-6.1,5.7
		C-241.2,961.3-243.8,958.9-243.8,955.6z M-234.2,955.6c0-2.1-1.5-3.6-3.5-3.6c-2,0-3.5,1.4-3.5,3.6s1.5,3.6,3.5,3.6
		C-235.7,959.1-234.2,957.7-234.2,955.6z"/>
	<path class="st0" d="M-219.5,950v11.1h-2.1l-5.5-6.8v6.8h-2.5V950h2.1l5.5,6.8V950H-219.5z"/>
	<path class="st0" d="M-217.7,960l0.9-1.9c0.9,0.7,2.3,1.2,3.7,1.2c1.5,0,2.1-0.5,2.1-1.2c0-2.1-6.5-0.7-6.5-4.8
		c0-1.9,1.5-3.5,4.7-3.5c1.4,0,2.8,0.3,3.9,1l-0.8,2c-1-0.6-2.1-0.9-3.1-0.9c-1.5,0-2.1,0.6-2.1,1.3c0,2,6.5,0.6,6.5,4.7
		c0,1.9-1.5,3.4-4.7,3.4C-215,961.3-216.7,960.8-217.7,960z"/>
</g>
<g id="XMLID_53_">
	<path id="XMLID_54_" class="st0" d="M-415.5,955h-5.6v-2h13.7v2h-5.7v16.5h-2.4V955z"/>
</g>
<g>
	<path class="st0" d="M-390.5,972l0.3-0.6c0.4,0.3,1,0.6,1.7,0.6c0.9,0,1.3-0.3,1.3-0.8c0-1.2-3.1-0.5-3.1-2.3
		c0-0.8,0.6-1.5,1.9-1.5c0.6,0,1.2,0.2,1.6,0.5l-0.2,0.6c-0.4-0.3-0.9-0.4-1.4-0.4c-0.9,0-1.2,0.4-1.2,0.8c0,1.2,3.1,0.5,3.1,2.3
		c0,0.8-0.6,1.4-2,1.4C-389.4,972.6-390.1,972.4-390.5,972z"/>
	<path class="st0" d="M-377.2,972.6l0-3.7l-1.8,3.1h-0.3l-1.8-3.1v3.7h-0.7v-5.1h0.6l2.1,3.6l2.1-3.6h0.6l0,5.1H-377.2z"/>
	<path class="st0" d="M-368.1,971.3h-2.7l-0.6,1.3h-0.7l2.3-5.1h0.7l2.3,5.1h-0.8L-368.1,971.3z M-368.4,970.7l-1.1-2.5l-1.1,2.5
		H-368.4z"/>
	<path class="st0" d="M-359,972.6l-1.1-1.6c-0.1,0-0.2,0-0.3,0h-1.3v1.5h-0.7v-5.1h2c1.3,0,2.1,0.7,2.1,1.8c0,0.8-0.4,1.4-1.1,1.6
		l1.2,1.7H-359z M-359.1,969.3c0-0.7-0.5-1.1-1.4-1.1h-1.2v2.3h1.2C-359.5,970.4-359.1,970-359.1,969.3z"/>
	<path class="st0" d="M-352.6,968.1h-1.7v-0.6h4.2v0.6h-1.7v4.5h-0.7V968.1z"/>
	<path class="st0" d="M-342,971.9v0.6h-3.7v-5.1h3.6v0.6h-2.9v1.6h2.5v0.6h-2.5v1.6H-342z"/>
	<path class="st0" d="M-333.8,972.6l-1.1-1.6c-0.1,0-0.2,0-0.3,0h-1.3v1.5h-0.7v-5.1h2c1.3,0,2.1,0.7,2.1,1.8c0,0.8-0.4,1.4-1.1,1.6
		l1.2,1.7H-333.8z M-333.8,969.3c0-0.7-0.5-1.1-1.4-1.1h-1.2v2.3h1.2C-334.3,970.4-333.8,970-333.8,969.3z"/>
	<path class="st0" d="M-316.4,968.1v1.8h2.5v0.6h-2.5v2.1h-0.7v-5.1h3.6v0.6H-316.4z"/>
	<path class="st0" d="M-305.9,971.3h-2.7l-0.6,1.3h-0.7l2.3-5.1h0.7l2.3,5.1h-0.8L-305.9,971.3z M-306.1,970.7l-1.1-2.5l-1.1,2.5
		H-306.1z"/>
	<path class="st0" d="M-300.6,972l0.3-0.6c0.4,0.3,1,0.6,1.7,0.6c0.9,0,1.3-0.3,1.3-0.8c0-1.2-3.1-0.5-3.1-2.3
		c0-0.8,0.6-1.5,1.9-1.5c0.6,0,1.2,0.2,1.6,0.5l-0.2,0.6c-0.4-0.3-0.9-0.4-1.4-0.4c-0.9,0-1.2,0.4-1.2,0.8c0,1.2,3.1,0.5,3.1,2.3
		c0,0.8-0.6,1.4-2,1.4C-299.5,972.6-300.2,972.4-300.6,972z"/>
	<path class="st0" d="M-291.1,968.1h-1.7v-0.6h4.2v0.6h-1.7v4.5h-0.7V968.1z"/>
	<path class="st0" d="M-280.5,971.9v0.6h-3.7v-5.1h3.6v0.6h-2.9v1.6h2.5v0.6h-2.5v1.6H-280.5z"/>
	<path class="st0" d="M-272.3,972.6l-1.1-1.6c-0.1,0-0.2,0-0.3,0h-1.3v1.5h-0.7v-5.1h2c1.3,0,2.1,0.7,2.1,1.8c0,0.8-0.4,1.4-1.1,1.6
		l1.2,1.7H-272.3z M-272.3,969.3c0-0.7-0.5-1.1-1.4-1.1h-1.2v2.3h1.2C-272.8,970.4-272.3,970-272.3,969.3z"/>
	<path class="st0" d="M-251.3,967.5v5.1h-0.7v-2.3h-2.9v2.3h-0.7v-5.1h0.7v2.2h2.9v-2.2H-251.3z"/>
	<path class="st0" d="M-246.1,967.5h0.7v5.1h-0.7V967.5z"/>
	<path class="st0" d="M-236.7,970h0.7v2c-0.5,0.4-1.2,0.6-1.9,0.6c-1.6,0-2.7-1.1-2.7-2.6s1.1-2.6,2.7-2.6c0.8,0,1.5,0.3,2,0.8
		l-0.5,0.5c-0.4-0.4-0.9-0.6-1.5-0.6c-1.2,0-2,0.8-2,2c0,1.1,0.8,2,2,2c0.4,0,0.8-0.1,1.2-0.3V970z"/>
	<path class="st0" d="M-226.6,967.5v5.1h-0.7v-2.3h-2.9v2.3h-0.7v-5.1h0.7v2.2h2.9v-2.2H-226.6z"/>
	<path class="st0" d="M-217.8,971.9v0.6h-3.7v-5.1h3.6v0.6h-2.9v1.6h2.5v0.6h-2.5v1.6H-217.8z"/>
	<path class="st0" d="M-209.6,972.6l-1.1-1.6c-0.1,0-0.2,0-0.3,0h-1.3v1.5h-0.7v-5.1h2c1.3,0,2.1,0.7,2.1,1.8c0,0.8-0.4,1.4-1.1,1.6
		l1.2,1.7H-209.6z M-209.6,969.3c0-0.7-0.5-1.1-1.4-1.1h-1.2v2.3h1.2C-210.1,970.4-209.6,970-209.6,969.3z"/>
</g>
<rect id="XMLID_17_" x="-326.6" y="968.5" class="st0" width="3.3" height="3.3"/>
<rect id="XMLID_19_" x="-265.9" y="968.5" class="st0" width="3.3" height="3.3"/>
</svg>
